<?xml version="1.0" encoding="UTF-8"?>
<svg height="128px" viewBox="0 0 128 128" width="128px" xmlns="http://www.w3.org/2000/svg" xmlns:xlink="http://www.w3.org/1999/xlink">
    <linearGradient id="a" gradientTransform="matrix(0.232143 0 0 0.328947 -8.5672 263.826942)" gradientUnits="userSpaceOnUse" x1="88.595886" x2="536.595886" y1="-449.394012" y2="-449.394012">
        <stop offset="0" stop-color="#1a5fb4"/>
        <stop offset="0.0384615" stop-color="#99c1f1"/>
        <stop offset="0.0768555" stop-color="#1c71d8"/>
        <stop offset="0.923077" stop-color="#1c71d8"/>
        <stop offset="0.961538" stop-color="#99c1f1"/>
        <stop offset="1" stop-color="#1a5fb4"/>
    </linearGradient>
    <clipPath id="b">
        <rect height="128" width="128"/>
    </clipPath>
    <clipPath id="c">
        <rect height="128" width="128"/>
    </clipPath>
    <filter id="d" height="100%" width="100%" x="0%" y="0%">
        <feColorMatrix in="SourceGraphic" type="matrix" values="0 0 0 0 1 0 0 0 0 1 0 0 0 0 1 0 0 0 1 0"/>
    </filter>
    <mask id="e">
        <g clip-path="url(#c)" filter="url(#d)">
            <g clip-path="url(#b)">
                <path d="m 20 16 h 88 c 4.417969 0 8 3.582031 8 8 v 84 c 0 4.417969 -3.582031 8 -8 8 h -88 c -4.417969 0 -8 -3.582031 -8 -8 v -84 c 0 -4.417969 3.582031 -8 8 -8 z m 0 0" fill="url(#a)"/>
                <path d="m 20 12 h 88 c 4.417969 0 8 3.582031 8 8 v 84 c 0 4.417969 -3.582031 8 -8 8 h -88 c -4.417969 0 -8 -3.582031 -8 -8 v -84 c 0 -4.417969 3.582031 -8 8 -8 z m 0 0" fill="#3584e4"/>
                <path d="m 54.832031 67.546875 h 4.484375 c 6.328125 0.078125 8.796875 2.40625 9.046875 8.8125 l 0.234375 3.109375 c 0.484375 6 0.71875 7.4375 1.515625 9.609375 c 1.921875 4.953125 5.921875 7.4375 12.171875 7.4375 c 8.640625 0 13.59375 -4.796875 13.59375 -13.359375 v -0.96875 h -4.3125 c -0.09375 5.046875 -1.28125 7.609375 -3.6875 7.609375 c -0.875 0 -1.84375 -0.484375 -2.3125 -1.125 c -0.484375 -0.71875 -0.5625 -1.28125 -0.96875 -3.84375 c 0 -0.390625 -0.15625 -1.109375 -0.3125 -2.234375 l -0.5625 -3.046875 c -1.203125 -7.1875 -4.25 -10.796875 -11.203125 -13.109375 c 4.234375 -0.8125 6.3125 -1.359375 8.3125 -2.328125 c 4.890625 -2.484375 7.6875 -6.875 7.6875 -12.078125 c 0 -4.796875 -2.3125 -8.875 -6.484375 -11.59375 c -3.03125 -1.921875 -8.390625 -2.890625 -15.75 -2.890625 h -34.171875 v 4.328125 h 1.203125 c 4.328125 0 5.84375 0.3125 6.5625 1.125 c 0.5625 0.875 0.5625 1.109375 0.5625 6.078125 v 34.640625 c 0 4.953125 0 5.28125 -0.5625 6.078125 c -0.71875 0.875 -2.3125 1.109375 -6.5625 1.203125 h -1.203125 v 4.3125 h 32 v -4.3125 h -2.078125 c -4.234375 -0.09375 -5.921875 -0.328125 -6.640625 -1.203125 c -0.5625 -0.796875 -0.5625 -1.125 -0.5625 -6.078125 z m 0 -4.390625 v -16.15625 c -0.078125 -4.40625 0.5625 -5.046875 5.6875 -5.125 h 1.921875 c 7.515625 0 10.796875 3.28125 10.796875 10.640625 c 0 8.078125 -3.359375 10.640625 -14 10.640625 z m -24.3125 -26.804688" fill="#1c71d8"/>
                <path d="m 54.832031 65.484375 h 4.484375 c 6.328125 0.078125 8.796875 2.40625 9.046875 8.8125 l 0.234375 3.109375 c 0.484375 6 0.71875 7.4375 1.515625 9.609375 c 1.921875 4.953125 5.921875 7.4375 12.171875 7.4375 c 8.640625 0 13.59375 -4.796875 13.59375 -13.359375 v -0.96875 h -4.3125 c -0.09375 5.046875 -1.28125 7.609375 -3.6875 7.609375 c -0.875 0 -1.84375 -0.484375 -2.3125 -1.125 c -0.484375 -0.71875 -0.5625 -1.28125 -0.96875 -3.84375 c 0 -0.390625 -0.15625 -1.109375 -0.3125 -2.234375 l -0.5625 -3.046875 c -1.203125 -7.1875 -4.25 -10.796875 -11.203125 -13.109375 c 4.234375 -0.8125 6.3125 -1.359375 8.3125 -2.328125 c 4.890625 -2.484375 7.6875 -6.875 7.6875 -12.078125 c 0 -4.796875 -2.3125 -8.875 -6.484375 -11.59375 c -3.03125 -1.921875 -8.390625 -2.890625 -15.75 -2.890625 h -34.171875 v 4.328125 h 1.203125 c 4.328125 0 5.84375 0.3125 6.5625 1.125 c 0.5625 0.875 0.5625 1.109375 0.5625 6.078125 v 34.640625 c 0 4.953125 0 5.28125 -0.5625 6.078125 c -0.71875 0.875 -2.3125 1.109375 -6.5625 1.203125 h -1.203125 v 4.3125 h 32 v -4.3125 h -2.078125 c -4.234375 -0.09375 -5.921875 -0.328125 -6.640625 -1.203125 c -0.5625 -0.796875 -0.5625 -1.125 -0.5625 -6.078125 z m 0 -4.390625 v -16.15625 c -0.078125 -4.40625 0.5625 -5.046875 5.6875 -5.125 h 1.921875 c 7.515625 0 10.796875 3.28125 10.796875 10.640625 c 0 8.078125 -3.359375 10.640625 -14 10.640625 z m -24.3125 -26.804688" fill="#ffffff"/>
            </g>
        </g>
    </mask>
    <mask id="f">
        <g filter="url(#d)">
            <rect fill-opacity="0.8" height="128" width="128"/>
        </g>
    </mask>
    <linearGradient id="g" gradientTransform="matrix(0 0.37 -0.98462 0 295.38501 -30.360001)" gradientUnits="userSpaceOnUse" x1="300" x2="428" y1="235" y2="235">
        <stop offset="0" stop-color="#f9f06b"/>
        <stop offset="1" stop-color="#f5c211"/>
    </linearGradient>
    <clipPath id="h">
        <rect height="128" width="128"/>
    </clipPath>
    <clipPath id="i">
        <rect height="128" width="128"/>
    </clipPath>
    <path d="m 20 16 h 88 c 4.417969 0 8 3.582031 8 8 v 84 c 0 4.417969 -3.582031 8 -8 8 h -88 c -4.417969 0 -8 -3.582031 -8 -8 v -84 c 0 -4.417969 3.582031 -8 8 -8 z m 0 0" fill="url(#a)"/>
    <path d="m 20 12 h 88 c 4.417969 0 8 3.582031 8 8 v 84 c 0 4.417969 -3.582031 8 -8 8 h -88 c -4.417969 0 -8 -3.582031 -8 -8 v -84 c 0 -4.417969 3.582031 -8 8 -8 z m 0 0" fill="#3584e4"/>
    <path d="m 54.832031 67.546875 h 4.484375 c 6.328125 0.078125 8.796875 2.40625 9.046875 8.8125 l 0.234375 3.109375 c 0.484375 6 0.71875 7.4375 1.515625 9.609375 c 1.921875 4.953125 5.921875 7.4375 12.171875 7.4375 c 8.640625 0 13.59375 -4.796875 13.59375 -13.359375 v -0.96875 h -4.3125 c -0.09375 5.046875 -1.28125 7.609375 -3.6875 7.609375 c -0.875 0 -1.84375 -0.484375 -2.3125 -1.125 c -0.484375 -0.71875 -0.5625 -1.28125 -0.96875 -3.84375 c 0 -0.390625 -0.15625 -1.109375 -0.3125 -2.234375 l -0.5625 -3.046875 c -1.203125 -7.1875 -4.25 -10.796875 -11.203125 -13.109375 c 4.234375 -0.8125 6.3125 -1.359375 8.3125 -2.328125 c 4.890625 -2.484375 7.6875 -6.875 7.6875 -12.078125 c 0 -4.796875 -2.3125 -8.875 -6.484375 -11.59375 c -3.03125 -1.921875 -8.390625 -2.890625 -15.75 -2.890625 h -34.171875 v 4.328125 h 1.203125 c 4.328125 0 5.84375 0.3125 6.5625 1.125 c 0.5625 0.875 0.5625 1.109375 0.5625 6.078125 v 34.640625 c 0 4.953125 0 5.28125 -0.5625 6.078125 c -0.71875 0.875 -2.3125 1.109375 -6.5625 1.203125 h -1.203125 v 4.3125 h 32 v -4.3125 h -2.078125 c -4.234375 -0.09375 -5.921875 -0.328125 -6.640625 -1.203125 c -0.5625 -0.796875 -0.5625 -1.125 -0.5625 -6.078125 z m 0 -4.390625 v -16.15625 c -0.078125 -4.40625 0.5625 -5.046875 5.6875 -5.125 h 1.921875 c 7.515625 0 10.796875 3.28125 10.796875 10.640625 c 0 8.078125 -3.359375 10.640625 -14 10.640625 z m -24.3125 -26.804688" fill="#1c71d8"/>
    <path d="m 54.832031 65.484375 h 4.484375 c 6.328125 0.078125 8.796875 2.40625 9.046875 8.8125 l 0.234375 3.109375 c 0.484375 6 0.71875 7.4375 1.515625 9.609375 c 1.921875 4.953125 5.921875 7.4375 12.171875 7.4375 c 8.640625 0 13.59375 -4.796875 13.59375 -13.359375 v -0.96875 h -4.3125 c -0.09375 5.046875 -1.28125 7.609375 -3.6875 7.609375 c -0.875 0 -1.84375 -0.484375 -2.3125 -1.125 c -0.484375 -0.71875 -0.5625 -1.28125 -0.96875 -3.84375 c 0 -0.390625 -0.15625 -1.109375 -0.3125 -2.234375 l -0.5625 -3.046875 c -1.203125 -7.1875 -4.25 -10.796875 -11.203125 -13.109375 c 4.234375 -0.8125 6.3125 -1.359375 8.3125 -2.328125 c 4.890625 -2.484375 7.6875 -6.875 7.6875 -12.078125 c 0 -4.796875 -2.3125 -8.875 -6.484375 -11.59375 c -3.03125 -1.921875 -8.390625 -2.890625 -15.75 -2.890625 h -34.171875 v 4.328125 h 1.203125 c 4.328125 0 5.84375 0.3125 6.5625 1.125 c 0.5625 0.875 0.5625 1.109375 0.5625 6.078125 v 34.640625 c 0 4.953125 0 5.28125 -0.5625 6.078125 c -0.71875 0.875 -2.3125 1.109375 -6.5625 1.203125 h -1.203125 v 4.3125 h 32 v -4.3125 h -2.078125 c -4.234375 -0.09375 -5.921875 -0.328125 -6.640625 -1.203125 c -0.5625 -0.796875 -0.5625 -1.125 -0.5625 -6.078125 z m 0 -4.390625 v -16.15625 c -0.078125 -4.40625 0.5625 -5.046875 5.6875 -5.125 h 1.921875 c 7.515625 0 10.796875 3.28125 10.796875 10.640625 c 0 8.078125 -3.359375 10.640625 -14 10.640625 z m -24.3125 -26.804688" fill="#ffffff"/>
    <g clip-path="url(#i)" mask="url(#e)">
        <g clip-path="url(#h)" mask="url(#f)">
            <path d="m 128 80.640625 v 47.359375 h -128 v -47.359375 z m 0 0" fill="url(#g)"/>
            <path d="m 13.308594 80.640625 l 47.355468 47.359375 h 21.214844 l -47.359375 -47.359375 z m 42.421875 0 l 47.363281 47.359375 h 21.214844 l -47.363282 -47.359375 z m 42.429687 0 l 29.839844 29.839844 v -21.210938 l -8.628906 -8.628906 z m -98.160156 7.90625 v 21.214844 l 18.238281 18.238281 h 21.214844 z m 0 0"/>
        </g>
    </g>
</svg>
