<?xml version="1.0" encoding="UTF-8"?>
<svg height="16px" viewBox="0 0 16 16" width="16px" xmlns="http://www.w3.org/2000/svg">
    <path d="m 6.164062 8.109375 h 0.90625 c 1.265626 0.015625 1.75 0.46875 1.796876 1.75 l 0.046874 0.625 c 0.109376 1.203125 0.15625 1.484375 0.3125 1.921875 c 0.375 1 1.1875 1.484375 2.4375 1.484375 c 1.71875 0 2.71875 -0.953125 2.71875 -2.671875 v -0.1875 h -0.875 c -0.015624 1.015625 -0.25 1.515625 -0.734374 1.515625 c -0.171876 0 -0.359376 -0.09375 -0.453126 -0.21875 c -0.109374 -0.140625 -0.125 -0.25 -0.203124 -0.765625 c 0 -0.078125 -0.03125 -0.21875 -0.0625 -0.453125 l -0.109376 -0.609375 c -0.234374 -1.4375 -0.84375 -2.15625 -2.234374 -2.625 c 0.84375 -0.15625 1.25 -0.265625 1.65625 -0.453125 c 0.984374 -0.5 1.53125 -1.375 1.53125 -2.421875 c 0 -0.953125 -0.453126 -1.78125 -1.296876 -2.3125 c -0.59375 -0.390625 -1.671874 -0.578125 -3.140624 -0.578125 h -6.84375 v 0.859375 h 0.25 c 0.859374 0 1.171874 0.0625 1.3125 0.21875 c 0.109374 0.1875 0.109374 0.234375 0.109374 1.21875 v 6.9375 c 0 0.984375 0 1.046875 -0.109374 1.203125 c -0.140626 0.1875 -0.46875 0.234375 -1.3125 0.25 h -0.25 v 0.859375 h 6.40625 v -0.859375 h -0.421876 c -0.84375 -0.015625 -1.171874 -0.0625 -1.328124 -0.25 c -0.109376 -0.15625 -0.109376 -0.21875 -0.109376 -1.203125 z m 0 -0.890625 v -3.21875 c -0.015624 -0.890625 0.109376 -1.015625 1.140626 -1.03125 h 0.390624 c 1.5 0 2.15625 0.65625 2.15625 2.125 c 0 1.625 -0.671874 2.125 -2.796874 2.125 z m -4.859374 -5.355469" fill="#ffffff"/>
</svg>
